<?xml version="1.0" encoding="utf-8"?>
<!-- Generator: Adobe Illustrator 23.0.0, SVG Export Plug-In . SVG Version: 6.00 Build 0)  -->
<svg version="1.1" id="Layer_1" xmlns="http://www.w3.org/2000/svg" xmlns:xlink="http://www.w3.org/1999/xlink" x="0px" y="0px"
	 viewBox="0 0 512 288" style="enable-background:new 0 0 512 288;" xml:space="preserve">
<style type="text/css">
	.st0{fill:#00344D;}
	.st1{fill:#FF5D0A;}
	.st2{fill:#BEE3F6;}
	.st3{fill:#2D3656;}
	.st4{fill:#F7C899;}
	.st5{fill:#D9B087;}
	.st6{fill:#47211C;}
	.st7{fill:#EDC093;}
	.st8{fill:#5C312A;}
	.st9{fill:#D9AA7C;}
	.st10{fill:#FFFFFF;}
	.st11{fill:#B5895D;}
	.st12{fill:#424C71;}
	.st13{fill:#222B4A;}
	.st14{fill:#E0E0E0;}
</style>
<g>
	<path class="st0" d="M29.9,184.6c0-1.8,0.5-3.6,1.5-5.4L91.4,61c2.5-4.8,6.3-7.2,11.4-7.2c2.8,0,5.7,1,8.7,3s4.5,4.4,4.5,7.2
		c0,1-0.4,2.3-1.2,4L63.7,169.9h36.5v-34.4c0-5.8,4.4-8.7,13.1-8.7c3.6,0,6.7,0.8,9.3,2.2c2.6,1.5,3.8,3.7,3.8,6.5v34.4h12.2
		c2.8,0,5,1.2,6.6,3.7c1.6,2.5,2.4,5.3,2.4,8.6c0,2.9-0.9,5.7-2.7,8.2c-1.8,2.5-3.9,3.8-6.2,3.8h-12.2v32.2c0,2.7-1.3,4.8-4,6.4
		c-2.6,1.6-5.7,2.4-9.2,2.4c-3.6,0-6.7-0.8-9.3-2.4c-2.6-1.6-3.8-3.7-3.8-6.4v-32.2h-61c-2.6,0-4.8-0.9-6.6-2.6
		C30.8,189.9,29.9,187.6,29.9,184.6z"/>
</g>
<g>
	<path class="st0" d="M371.4,193c0-4.2,0.9-7.1,2.7-8.7c1.8-1.5,4.9-2.3,9.3-2.3c5.2,0,8.8,0.8,10.7,2.3c1.9,1.6,2.8,4,2.8,7.5
		c0,5.9,2.5,10.9,7.5,15.1c5,4.2,12.1,6.2,21.4,6.2c10.1,0,17.6-2.4,22.4-7.2c4.8-4.8,7.2-12.5,7.2-23.2V178
		c0-17.8-10-26.7-29.9-26.7c-5.6,0-8.3-3.4-8.3-10.2c0-6.9,2.8-10.4,8.3-10.4c8.3,0,14.7-1.9,19-5.6c4.3-3.8,6.5-10.9,6.5-21.3
		c0-16.8-8.2-25.2-24.5-25.2c-9.1,0-15.7,1.9-19.6,5.7c-3.9,3.8-5.9,8.5-5.9,14.2c0,7-4.1,10.5-12.3,10.5c-5.6,0-9.2-0.8-10.9-2.4
		c-1.7-1.6-2.6-4.8-2.6-9.6c0-4.4,0.8-8.8,2.5-13.2c1.6-4.4,4.3-8.8,8-13.2c3.7-4.4,9.1-8,16.2-10.8c7.1-2.8,15.4-4.2,24.9-4.2
		c32.8,0,49.2,14.6,49.2,43.9c0,9.9-1.8,18.5-5.3,25.7c-3.5,7.2-8.3,12.2-14.3,15.1c16.7,6.5,25,19.2,25,37.9v4.6
		c0,18.4-5.1,31.9-15.4,40.5s-23.8,12.8-40.4,12.8c-17.6,0-31.1-4.4-40.3-13.2C376,214,371.4,204.1,371.4,193z"/>
</g>
<g>
	<path class="st1" d="M366.8,149.5c0,58.2-47.1,105.3-105.3,105.3c-58.2,0-105.3-47.1-105.3-105.3c0-58.2,47.1-105.3,105.3-105.3
		C319.6,44.2,366.8,91.3,366.8,149.5z"/>
	<path class="st2" d="M362.8,149.5c0,56-45.4,101.4-101.4,101.4c-56,0-101.4-45.4-101.4-101.4c0-56,45.4-101.4,101.4-101.4
		C317.4,48.1,362.8,93.5,362.8,149.5z"/>
	<g>
		<path class="st3" d="M232.9,199.3c-6.4,0.7-9.4,1.7-10.7,9.3l-4.5,32.4c10.1,4.8,21.1,8,32.7,9.3l-5-44.3
			C244.8,201.5,239.3,198.5,232.9,199.3z"/>
		<path class="st4" d="M272.2,201.4c0,6.1-5,6-11.1,6l0,0c-6.1,0-11.1,0.1-11.1-6v-44.7c0-6.1,5-11.1,11.1-11.1l0,0
			c6.1,0,11.1,5,11.1,11.1V201.4z"/>
		<path class="st5" d="M250,194.5c0.8,0,1.6,0,2.4,0c7.1,0,13.8-1.2,19.9-3.3v-34.6c0-6.1-5-11.1-11.1-11.1c-6.1,0-11.1,5-11.1,11.1
			V194.5z"/>
		<g>
			<path class="st6" d="M211.9,73.6c-11,35.4,7,64.6,7,64.6s-2.4-39,11.6-50L211.9,73.6z"/>
			<g>
				<path class="st4" d="M326.4,124.2c0,8.6-8.5,20.6-15.3,20.6c-6.8,0-9.3-12-9.3-20.6c0-8.6,5.5-10.2,12.3-10.2
					C320.9,114,326.4,115.6,326.4,124.2z"/>
				<path class="st7" d="M324.2,125c0,7.1-7,15.8-12.6,15.8c-5.6,0-7.6-8.7-7.6-15.8c0-7.1,4.5-8.4,10.1-8.4
					C319.7,116.6,324.2,117.9,324.2,125z"/>
				<path class="st4" d="M313.1,129c0.4,1.1-1.2,2.8-3.7,3.8c-2.5,1-4.8,0.9-5.3-0.2c-0.4-1.1,1.2-2.8,3.7-3.8
					C310.3,127.8,312.6,127.9,313.1,129z"/>
				<path class="st5" d="M314.1,116.6c-3.7,0-7,0.6-8.7,3.1c1.8-1.3,4.4-1.6,7.3-1.6c5.6,0,10.1,1.3,10.1,8.4
					c0,3.9-2.1,8.3-4.9,11.4c3.5-3.1,6.4-8.3,6.4-12.9C324.2,117.9,319.7,116.6,314.1,116.6z"/>
			</g>
			<path class="st4" d="M307.3,133.8L307.3,133.8c0,0-3.3-17.1-4.3-36.3c-0.6-12-7.7-29.8-42-29.8c-34.3,0-41.7,17.8-42,29.8
				c-0.3,14.6-4.3,36.3-4.3,36.3l0,0c-1.9,5.7-3,11-3.2,15.2c-1.1,22.1,21,40.7,49.4,40.7s50.5-18.6,49.4-40.7
				C310.3,144.8,309.2,139.5,307.3,133.8z"/>
			<path class="st8" d="M310.6,73.6c11,35.4-7,64.6-7,64.6s2.4-39-11.6-50c0,0-49.2,33.1-83.5,10.4c-14.3-9.5-23.2-38.9-23.2-38.9
				s15.8-8.7,34.7-7.5c0,0-3-4.9-1.8-8.5c0,0,37.2-0.9,48.8,16c0,0-1.8-7.2,0-10.4c0,0,10.4,6.6,13.4,10.4
				C284.3,64.6,299.4,74.3,310.6,73.6z"/>
			<path class="st9" d="M249.7,134.4c0,0-7,14.1-17,11.7c0,0,6.4,14.1,17,9.9c0,0-6.6-1.7-8.5-6.2
				C241.2,149.9,248.6,148.9,249.7,134.4z"/>
			<g>
				<path class="st6" d="M243.2,116.8c0,0,0-0.1-0.1-0.3c-0.1-0.2-0.3-0.5-0.5-0.8c-0.2-0.3-0.6-0.7-0.9-1c-0.4-0.3-0.9-0.7-1.4-0.9
					c-0.6-0.3-1.2-0.6-1.8-0.8c-0.7-0.2-1.4-0.4-2.1-0.5c-0.7-0.1-1.5-0.1-2.3-0.1c-0.8,0.1-1.6,0.2-2.3,0.4
					c-0.8,0.2-1.5,0.5-2.2,0.8c-0.4,0.2-0.7,0.4-1.1,0.5c-0.3,0.2-0.7,0.4-1,0.6c-0.7,0.4-1.3,0.9-1.9,1.4c-0.6,0.5-1.1,1-1.6,1.4
					c-0.5,0.5-1,0.9-1.4,1.3c-0.4,0.4-0.8,0.8-1.1,1.1c-0.6,0.6-1,0.9-1,0.9s0.1-0.5,0.3-1.3c0.1-0.4,0.3-0.9,0.5-1.5
					c0.2-0.6,0.5-1.2,0.8-1.9c0.4-0.7,0.8-1.4,1.3-2.1c0.5-0.7,1.2-1.4,1.9-2.1c1.4-1.3,3.4-2.4,5.5-3c1.1-0.2,2.2-0.4,3.2-0.4
					c1.1,0,2.1,0.2,3.1,0.5c2,0.6,3.6,1.7,4.7,2.9c0.6,0.6,0.9,1.3,1.2,1.8c0.3,0.6,0.4,1.2,0.4,1.6c0.1,0.5,0,0.8-0.1,1.1
					C243.2,116.7,243.2,116.8,243.2,116.8z"/>
			</g>
			<path class="st10" d="M232.8,137.1c4.3,0,8.3-0.8,11.7-2.3c-0.1-8.1-5.3-14.6-11.7-14.6c-6.4,0-11.6,6.5-11.7,14.6
				C224.5,136.3,228.5,137.1,232.8,137.1z"/>
			<path class="st10" d="M276.7,139.1c5.3,0,10.2-1,14.3-2.8c-0.1-9.9-6.5-17.9-14.3-17.9c-7.8,0-14.2,8-14.3,17.9
				C266.6,138,271.5,139.1,276.7,139.1z"/>
			<path class="st6" d="M233.6,130.6c0,2.9-1.4,5.3-3.1,5.3c-1.7,0-3.1-2.4-3.1-5.3c0-2.9,1.4-5.3,3.1-5.3
				C232.2,125.3,233.6,127.7,233.6,130.6z"/>
			<path class="st6" d="M275.2,130.6c0,3.1-1.5,5.7-3.3,5.7c-1.8,0-3.3-2.5-3.3-5.7c0-3.1,1.5-5.7,3.3-5.7
				C273.7,124.9,275.2,127.5,275.2,130.6z"/>
			<polygon class="st10" points="227.3,126.3 230.4,129.7 227.3,128.7 			"/>
			<polygon class="st10" points="268.3,126.1 272.2,130.4 268.3,129.2 			"/>
			<g>
				<path class="st6" d="M244.4,134.8c0,0,0-0.2-0.1-0.5c-0.1-0.3-0.1-0.7-0.2-1.3c-0.1-0.5-0.3-1.2-0.5-1.9
					c-0.1-0.4-0.2-0.8-0.4-1.2c-0.1-0.4-0.3-0.8-0.5-1.2c-0.2-0.4-0.4-0.9-0.7-1.3c-0.2-0.4-0.5-0.9-0.8-1.3
					c-0.6-0.8-1.3-1.7-2.2-2.4c-0.8-0.7-1.8-1.4-2.9-1.8c-1.1-0.4-2.2-0.7-3.4-0.7c-1.3,0-2.3,0.2-3.4,0.7c-1.1,0.4-2,1.1-2.9,1.8
					c-0.9,0.7-1.6,1.6-2.2,2.4c-0.3,0.4-0.6,0.9-0.8,1.3c-0.3,0.4-0.5,0.9-0.7,1.3c-0.2,0.4-0.4,0.8-0.5,1.2
					c-0.2,0.4-0.3,0.8-0.4,1.2c-0.2,0.7-0.4,1.4-0.5,1.9c-0.1,0.5-0.2,1-0.2,1.3c-0.1,0.3-0.1,0.5-0.1,0.5s0-0.2,0-0.5
					c0-0.3-0.1-0.8-0.1-1.3c0-0.6,0-1.3,0.2-2.1c0-0.4,0.1-0.8,0.2-1.3c0.1-0.4,0.2-0.9,0.4-1.4c0.3-1,0.7-2,1.3-3
					c0.6-1,1.3-2,2.3-2.9c0.9-0.9,2-1.7,3.3-2.3c1.2-0.6,2.8-0.9,4.1-0.9c1.4,0,2.8,0.3,4.1,0.9c1.3,0.5,2.4,1.4,3.3,2.3
					c1,0.9,1.7,1.9,2.3,2.9c0.6,1,1,2,1.3,3c0.2,0.5,0.3,0.9,0.4,1.4c0.1,0.4,0.2,0.9,0.2,1.3c0.1,0.8,0.1,1.5,0.2,2.1
					c0,0.6,0,1-0.1,1.3C244.5,134.7,244.4,134.8,244.4,134.8z"/>
			</g>
			<g>
				<path class="st6" d="M291.1,136.3c0,0,0-0.2-0.1-0.6c-0.1-0.4-0.1-0.9-0.3-1.6c-0.1-0.7-0.3-1.5-0.6-2.4
					c-0.1-0.5-0.3-0.9-0.5-1.4c-0.2-0.5-0.4-1-0.6-1.5c-0.1-0.3-0.2-0.5-0.4-0.8c-0.1-0.3-0.3-0.5-0.4-0.8c-0.3-0.6-0.6-1.1-1-1.6
					c-0.8-1.1-1.6-2.1-2.7-3c-1-0.9-2.3-1.7-3.6-2.3c-0.3-0.2-0.7-0.3-1-0.4c-0.3-0.1-0.7-0.2-1-0.3c-0.4,0-0.7-0.2-1.1-0.2l-0.5,0
					l-0.3,0l-0.1,0l-0.1,0l0,0l0,0c0,0-0.1,0,0,0l-1.2,0.1c-0.4,0-0.7,0.1-1.1,0.2c-0.3,0-0.7,0.1-1,0.3c-0.3,0.1-0.7,0.2-1,0.4
					c-1.3,0.5-2.5,1.3-3.6,2.3c-1.1,0.9-1.9,2-2.7,3c-0.4,0.5-0.7,1.1-1,1.6c-0.2,0.3-0.3,0.5-0.4,0.8c-0.1,0.3-0.2,0.5-0.4,0.8
					c-0.3,0.5-0.4,1-0.6,1.5c-0.2,0.5-0.4,1-0.5,1.4c-0.3,0.9-0.4,1.7-0.6,2.4c-0.1,0.7-0.2,1.2-0.3,1.6c-0.1,0.4-0.1,0.6-0.1,0.6
					s0-0.2,0-0.6c0-0.4-0.1-0.9,0-1.6c0-0.7,0.1-1.6,0.2-2.5c0.1-0.5,0.2-1,0.3-1.5c0.1-0.5,0.3-1.1,0.5-1.7
					c0.1-0.3,0.2-0.6,0.3-0.9c0.1-0.3,0.3-0.6,0.4-0.9c0.2-0.6,0.6-1.2,0.9-1.8c0.7-1.2,1.6-2.5,2.8-3.5c1.1-1.1,2.5-2.1,4-2.7
					c0.4-0.2,0.8-0.3,1.2-0.4c0.4-0.1,0.8-0.3,1.3-0.3c0.4-0.1,0.9-0.2,1.3-0.2l1.2-0.1c0.1,0,0,0,0.1,0l0,0l0,0l0.1,0l0.2,0l0.3,0
					l0.6,0c0.4,0,0.8,0.1,1.3,0.2c0.4,0.1,0.8,0.2,1.2,0.3c0.4,0.1,0.8,0.3,1.2,0.4c1.6,0.6,2.9,1.7,4,2.7c1.2,1.1,2,2.3,2.8,3.5
					c0.3,0.6,0.7,1.2,0.9,1.8c0.1,0.3,0.3,0.6,0.4,0.9c0.1,0.3,0.2,0.6,0.3,0.9c0.2,0.6,0.4,1.1,0.5,1.7c0.1,0.5,0.2,1.1,0.3,1.5
					c0.2,1,0.2,1.8,0.2,2.5c0,0.7,0,1.2,0,1.6C291.1,136.1,291.1,136.3,291.1,136.3z"/>
			</g>
			<g>
				<path class="st6" d="M264.2,111.8c0,0,0.1,0.1,0.3,0.3c0.2,0.2,0.4,0.4,0.8,0.7c0.6,0.6,1.6,1.3,2.7,2.1
					c1.1,0.8,2.4,1.6,3.8,2.2c0.7,0.3,1.4,0.6,2.2,0.7c0.7,0.2,1.5,0.3,2.3,0.4c0.8,0.1,1.6,0.1,2.4,0.1c0.8,0,1.6-0.1,2.4-0.2
					c0.4,0,0.8-0.1,1.2-0.2c0.4-0.1,0.8-0.1,1.2-0.2c0.8-0.1,1.5-0.3,2.2-0.4c0.7-0.1,1.3-0.3,1.9-0.4c0.6-0.1,1.1-0.2,1.5-0.3
					c0.9-0.2,1.4-0.2,1.4-0.2s-0.3,0.4-0.9,1.1c-0.3,0.3-0.7,0.7-1.1,1.2c-0.5,0.4-1,0.9-1.6,1.3c-0.6,0.5-1.3,0.9-2.1,1.3
					c-0.8,0.4-1.7,0.8-2.6,1.1c-0.5,0.2-1,0.3-1.5,0.4c-0.5,0.1-1,0.2-1.6,0.3c-1.1,0.2-2.2,0.1-3.3,0c-1.1-0.1-2.2-0.4-3.3-0.8
					c-1.1-0.4-2-0.9-2.9-1.5c-0.9-0.6-1.6-1.3-2.2-2c-0.6-0.7-1.1-1.4-1.5-2.1c-0.8-1.4-1.2-2.6-1.4-3.5
					C264.1,112.4,264.2,111.8,264.2,111.8z"/>
			</g>
			<g>
				<path class="st11" d="M229.1,161.3c0,0,0.4,0.1,1.2,0.3c0.7,0.2,1.8,0.5,3,0.9c2.5,0.7,5.7,1.8,8.9,2.9c0.8,0.3,1.6,0.5,2.4,0.8
					c0.8,0.2,1.6,0.5,2.3,0.8c0.8,0.2,1.5,0.5,2.2,0.7c0.7,0.2,1.4,0.4,2,0.6c0.6,0.2,1.2,0.3,1.7,0.5c0.5,0.2,1,0.2,1.3,0.4
					c0.7,0.2,1.2,0.3,1.2,0.3s-0.4,0.1-1.2,0.3c-0.4,0.1-0.9,0.2-1.4,0.2c-0.5,0-1.2,0.1-1.8,0.1c-0.7,0-1.4,0-2.2-0.1
					c-0.8-0.1-1.6-0.2-2.4-0.3c-1.6-0.3-3.4-0.7-5-1.3c-0.8-0.3-1.7-0.6-2.5-0.9c-0.8-0.3-1.6-0.7-2.3-1c-1.5-0.7-2.8-1.5-3.9-2.2
					c-1.1-0.7-2-1.4-2.6-1.9C229.4,161.6,229.1,161.3,229.1,161.3z"/>
			</g>
		</g>
		<path class="st12" d="M296.5,199.2h-63c-2.9,0-5.2,3.2-5,7l1.6,39.7c9.9,3.2,20.4,4.9,31.3,4.9c14.1,0,27.6-2.9,39.8-8.1l0.3-36.6
			C301.7,202.3,299.5,199.2,296.5,199.2z"/>
		<path class="st13" d="M292.1,204.7c-6.2,1.9-5.5,10-4.5,18.4c0.7,5.9,3.1,23.5,3.1,23.5c3.6-1.1,7.2-2.4,10.6-3.8l0.3-34.3
			l-1.1-3.6C299.2,200.6,298.2,202.8,292.1,204.7z"/>
		<path class="st13" d="M257,214.6c-0.4,0-0.7,0.9-0.7,2v34.2c0.5,0,0.9,0.1,1.4,0.1v-34.2C257.6,215.5,257.3,214.6,257,214.6z"/>
		<polygon class="st10" points="257,240.3 276,199.2 247,199.2 		"/>
		<polygon class="st13" points="276,199.2 283.2,209.6 272.9,215.6 276,227.9 257,247 257,240.3 		"/>
		<polygon class="st13" points="247,199.2 239.7,209.6 247,215.5 244.4,226.2 257,247 257,240.3 		"/>
		<polygon class="st14" points="261.1,199.2 265.1,207.5 277.3,201 272.2,194.6 		"/>
		<polygon class="st14" points="253.9,199.2 248.7,206.2 244.4,199.2 250,194.6 		"/>
		<path class="st12" d="M307.4,204.2c-1.3-4.3-7.3-6.2-13.5-4.4c-6.2,1.9-10.1,6.8-8.8,11.1l11.1,33.8c7.3-2.7,14.2-6.2,20.7-10.4
			L307.4,204.2z"/>
	</g>
</g>
</svg>
