<?xml version="1.0" encoding="utf-8"?>
<!-- Generator: Adobe Illustrator 23.0.0, SVG Export Plug-In . SVG Version: 6.00 Build 0)  -->
<svg version="1.1" id="Layer_1" xmlns="http://www.w3.org/2000/svg" xmlns:xlink="http://www.w3.org/1999/xlink" x="0px" y="0px"
	 viewBox="0 0 512 288" style="enable-background:new 0 0 512 288;" xml:space="preserve">
<style type="text/css">
	.st0{fill:#BEE3F6;}
	.st1{fill:#2D3656;}
	.st2{fill:#47211C;}
	.st3{fill:#F7C899;}
	.st4{fill:#EDC093;}
	.st5{fill:#D9B087;}
	.st6{fill:#FFFFFF;}
	.st7{fill:#5C312A;}
	.st8{fill:#D9AA7C;}
	.st9{fill:#424C71;}
	.st10{fill:#222B4A;}
	.st11{fill:#E0E0E0;}
	.st12{fill:#E26564;}
	.st13{fill:#00344D;}
</style>
<g>
	<g>
		
			<ellipse transform="matrix(0.9728 -0.2318 0.2318 0.9728 -27.156 63.2135)" class="st0" cx="255.5" cy="147.2" rx="101.4" ry="101.4"/>
		<g>
			<path class="st1" d="M226.9,197c-6.4,0.7-9.4,1.7-10.7,9.3l-4.5,32.4c10.1,4.8,21.1,8,32.7,9.3l-5-44.3
				C238.8,199.2,233.3,196.2,226.9,197z"/>
			<path class="st2" d="M205.9,71.3c-11,35.4,7,64.6,7,64.6s-2.4-39,11.6-50L205.9,71.3z"/>
			<g>
				<path class="st3" d="M320.4,121.9c0,8.6-8.5,20.6-15.3,20.6c-6.8,0-9.3-12-9.3-20.6c0-8.6,5.5-10.2,12.3-10.2
					C314.9,111.7,320.4,113.3,320.4,121.9z"/>
				<path class="st4" d="M318.2,122.7c0,7.1-7,15.8-12.6,15.8c-5.6,0-7.6-8.7-7.6-15.8c0-7.1,4.5-8.4,10.1-8.4
					C313.7,114.3,318.2,115.6,318.2,122.7z"/>
				<path class="st3" d="M307.1,126.7c0.4,1.1-1.2,2.8-3.7,3.8c-2.5,1-4.8,0.9-5.3-0.2c-0.4-1.1,1.2-2.8,3.7-3.8
					C304.3,125.5,306.6,125.6,307.1,126.7z"/>
				<path class="st5" d="M308.1,114.3c-3.7,0-7,0.6-8.7,3.1c1.8-1.3,4.4-1.6,7.3-1.6c5.6,0,10.1,1.3,10.1,8.4
					c0,3.9-2.1,8.3-4.9,11.4c3.5-3.1,6.4-8.3,6.4-12.9C318.2,115.6,313.7,114.3,308.1,114.3z"/>
			</g>
			<path class="st3" d="M266.2,199.1c0,6.1-5,6-11.1,6l0,0c-6.1,0-11.1,0.1-11.1-6v-44.7c0-6.1,5-11.1,11.1-11.1l0,0
				c6.1,0,11.1,5,11.1,11.1V199.1z"/>
			<path class="st5" d="M244,192.2c0.8,0,1.6,0,2.4,0c7.1,0,13.8-1.2,19.9-3.3v-34.6c0-6.1-5-11.1-11.1-11.1
				c-6.1,0-11.1,5-11.1,11.1V192.2z"/>
			<path class="st3" d="M301.3,131.5L301.3,131.5c0,0-3.3-17.1-4.3-36.3c-0.6-12-7.7-29.8-42-29.8c-34.3,0-41.7,17.8-42,29.8
				c-0.3,14.6-4.3,36.3-4.3,36.3l0,0c-1.9,5.7-3,11-3.2,15.2c-1.1,22.1,21,40.7,49.4,40.7c28.4,0,50.5-18.6,49.4-40.7
				C304.3,142.5,303.2,137.2,301.3,131.5z"/>
			<path class="st6" d="M226.7,135.5c4.3,0,10.7-2.5,11.7-6.1c3.1-10.2-5.3-14.6-11.7-14.6c-6.4,0-11.5,6.5-11.7,14.6
				C214.8,134.7,222.4,135.5,226.7,135.5z"/>
			<path class="st6" d="M271.3,136.8c5.4,0,13.6-2.2,14.6-6.6c2.4-11.1-6.6-18.2-14.6-18.2s-17.3,7.6-14.6,18.2
				C257.8,134.6,265.9,136.8,271.3,136.8z"/>
			<path class="st7" d="M304.6,71.3c11,35.4-7,64.6-7,64.6s2.4-39-11.6-50c0,0-49.2,33.1-83.5,10.4c-14.3-9.5-23.2-38.9-23.2-38.9
				s15.8-8.7,34.7-7.5c0,0-3-4.9-1.8-8.5c0,0,37.2-0.9,48.8,16c0,0-1.8-7.2,0-10.4c0,0,10.4,6.6,13.4,10.4
				C278.3,62.3,293.4,72,304.6,71.3z"/>
			<path class="st8" d="M243.7,127.3c0,0-7,14.1-17,11.7c0,0,6.4,14.1,17,9.9c0,0-6.6-1.7-8.5-6.2
				C235.2,142.7,242.6,141.8,243.7,127.3z"/>
			<g>
				<path class="st2" d="M257.8,106.4c2-1.5,4.3-2.4,6.7-2.9c2.4-0.5,4.9-0.6,7.3-0.3c2.5,0.3,4.9,1.2,7,2.4c2.2,1.3,4,3.1,5.1,5.4
					c-2.5-0.6-4.5-1.3-6.6-1.7c-2.1-0.4-4.1-0.8-6.2-1.1l-6.4-0.8C262.5,107.2,260.3,106.9,257.8,106.4z"/>
			</g>
			<g>
				<path class="st2" d="M237.2,108.6c-2.2,0.6-4.1,0.9-6,1.1l-5.5,0.8c-1.8,0.2-3.6,0.5-5.4,0.9c-1.8,0.3-3.6,0.8-5.9,1.3
					c0.9-2,2.5-3.7,4.4-4.9c1.9-1.1,4-1.9,6.2-2.2c2.2-0.3,4.3-0.2,6.4,0.3C233.4,106.3,235.5,107.1,237.2,108.6z"/>
			</g>
			<path class="st9" d="M290.5,196.9h-63c-2.9,0-5.2,3.2-5,7l1.6,39.7c9.9,3.2,20.4,4.9,31.3,4.9c14.1,0,27.6-2.9,39.8-8.1l0.3-36.6
				C295.7,200,293.5,196.9,290.5,196.9z"/>
			<path class="st10" d="M286.1,202.4c-6.2,1.9-5.5,10-4.5,18.4c0.7,5.9,3.1,23.5,3.1,23.5c3.6-1.1,7.2-2.4,10.6-3.8l0.3-34.3
				l-1.1-3.6C293.2,198.3,292.2,200.5,286.1,202.4z"/>
			<path class="st10" d="M251,212.3c-0.4,0-0.7,0.9-0.7,2v34.2c0.5,0,0.9,0.1,1.4,0.1v-34.2C251.6,213.2,251.3,212.3,251,212.3z"/>
			<polygon class="st6" points="251,238 270,196.9 241,196.9 			"/>
			<polygon class="st10" points="270,196.9 277.2,207.3 266.9,213.3 270,225.6 251,244.7 251,238 			"/>
			<polygon class="st10" points="241,196.9 233.7,207.3 241,213.2 238.4,223.9 251,244.7 251,238 			"/>
			<polygon class="st11" points="255.1,196.9 259.1,205.2 271.3,198.7 266.2,192.3 			"/>
			<polygon class="st11" points="247.9,196.9 242.7,203.9 238.4,196.9 244,192.3 			"/>
			<path class="st9" d="M301.4,201.9c-1.3-4.3-7.3-6.2-13.5-4.4c-6.2,1.9-10.1,6.8-8.8,11.1l11.1,33.8c7.3-2.7,14.2-6.2,20.7-10.4
				L301.4,201.9z"/>
			<ellipse class="st2" cx="224.7" cy="125.3" rx="2.9" ry="4.1"/>
			<path class="st2" d="M271.2,124.7c0,2.3-1.3,4.1-2.9,4.1s-2.9-1.9-2.9-4.1c0-2.3,1.3-4.1,2.9-4.1S271.2,122.4,271.2,124.7z"/>
			<path class="st12" d="M255.2,177.6c-2.8,4.6-18.4,4.3-21.7,0c-3.5-4.5,0.8-18.9,5.6-21.8c2.3-1.4,8.4-1.6,10.5,0
				C254.2,159.1,258.1,172.8,255.2,177.6z"/>
			<path class="st6" d="M233.3,177.4c0.1,0.1,0.1,0.2,0.2,0.2c3.3,4.3,18.9,4.6,21.7,0c0-0.1,0.1-0.2,0.1-0.2H233.3z"/>
			<path class="st6" d="M251.7,158.1c-0.7-1-1.4-1.8-2.1-2.3c-2.1-1.6-8.3-1.4-10.5,0c-0.8,0.5-1.6,1.3-2.3,2.3H251.7z"/>
		</g>
	</g>
	<g>
		<path class="st13" d="M29.9,184.6c0-1.8,0.5-3.6,1.5-5.4L91.4,61c2.5-4.8,6.3-7.2,11.4-7.2c2.8,0,5.7,1,8.7,3s4.5,4.4,4.5,7.2
			c0,1-0.4,2.3-1.2,4L63.7,169.9h36.5v-34.4c0-5.8,4.4-8.7,13.1-8.7c3.6,0,6.7,0.8,9.3,2.2c2.6,1.5,3.8,3.7,3.8,6.5v34.4h12.2
			c2.8,0,5,1.2,6.6,3.7c1.6,2.5,2.4,5.3,2.4,8.6c0,2.9-0.9,5.7-2.7,8.2c-1.8,2.5-3.9,3.8-6.2,3.8h-12.2v32.2c0,2.7-1.3,4.8-4,6.4
			c-2.6,1.6-5.7,2.4-9.2,2.4c-3.6,0-6.7-0.8-9.3-2.4c-2.6-1.6-3.8-3.7-3.8-6.4v-32.2h-61c-2.6,0-4.8-0.9-6.6-2.6
			C30.8,189.9,29.9,187.6,29.9,184.6z"/>
	</g>
	<g>
		<path class="st13" d="M360.9,184.6c0-1.8,0.5-3.6,1.5-5.4l60-118.2c2.5-4.8,6.3-7.2,11.4-7.2c2.8,0,5.7,1,8.7,3
			c3,2,4.5,4.4,4.5,7.2c0,1-0.4,2.3-1.2,4l-51.1,101.9h36.5v-34.4c0-5.8,4.4-8.7,13.1-8.7c3.6,0,6.7,0.8,9.3,2.2
			c2.6,1.5,3.8,3.7,3.8,6.5v34.4h12.2c2.8,0,5,1.2,6.6,3.7c1.6,2.5,2.4,5.3,2.4,8.6c0,2.9-0.9,5.7-2.7,8.2c-1.8,2.5-3.9,3.8-6.2,3.8
			h-12.2v32.2c0,2.7-1.3,4.8-4,6.4c-2.6,1.6-5.7,2.4-9.2,2.4c-3.6,0-6.7-0.8-9.3-2.4c-2.6-1.6-3.8-3.7-3.8-6.4v-32.2h-61
			c-2.6,0-4.8-0.9-6.6-2.6C361.8,189.9,360.9,187.6,360.9,184.6z"/>
	</g>
</g>
</svg>
