<?xml version="1.0" encoding="utf-8"?>
<!-- Generator: Adobe Illustrator 23.0.0, SVG Export Plug-In . SVG Version: 6.00 Build 0)  -->
<svg version="1.1" id="Layer_1" xmlns="http://www.w3.org/2000/svg" xmlns:xlink="http://www.w3.org/1999/xlink" x="0px" y="0px"
	 viewBox="0 0 512 288" style="enable-background:new 0 0 512 288;" xml:space="preserve">
<style type="text/css">
	.st0{fill:#FFCE31;}
	.st1{fill:#BEE3F6;}
	.st2{fill:#2D3656;}
	.st3{fill:#F7C899;}
	.st4{fill:#D9B087;}
	.st5{fill:#47211C;}
	.st6{fill:#EDC093;}
	.st7{fill:#5C312A;}
	.st8{fill:#D9AA7C;}
	.st9{fill:#FFFFFF;}
	.st10{fill:#424C71;}
	.st11{fill:#222B4A;}
	.st12{fill:#E0E0E0;}
	.st13{fill:#231F20;}
</style>
<g>
	<circle class="st0" cx="250.7" cy="151.1" r="134.7"/>
	<circle class="st1" cx="250.7" cy="151.1" r="129.9"/>
	<g>
		<path class="st2" d="M214.1,214.9c-8.2,0.9-12.1,2.2-13.7,12l-5.7,41.5c12.9,6.2,27,10.3,41.9,11.9l-6.5-56.7
			C229.5,217.8,222.3,214,214.1,214.9z"/>
		<path class="st3" d="M264.6,217.7c0,7.9-6.4,7.7-14.3,7.7l0,0c-7.9,0-14.3,0.2-14.3-7.7v-57.3c0-7.9,6.4-14.3,14.3-14.3l0,0
			c7.9,0,14.3,6.4,14.3,14.3V217.7z"/>
		<path class="st4" d="M236.1,208.8c1,0,2,0.1,3,0.1c9.1,0,17.7-1.5,25.5-4.2v-44.3c0-7.9-6.4-14.3-14.3-14.3s-14.3,6.4-14.3,14.3
			V208.8z"/>
		<g>
			<path class="st5" d="M199.4,43.3c-22.1,42-6.4,83-6.4,83s6.1-49.7,26.3-60.3L199.4,43.3z"/>
			<g>
				<path class="st3" d="M331.9,133.9c-2,10.9-15.6,23.9-24.1,22.4c-8.6-1.6-8.9-17.3-6.9-28.1c2-10.9,9.3-11.6,17.9-10
					C327.3,119.8,333.9,123,331.9,133.9z"/>
				<path class="st6" d="M328.9,134.4c-1.7,8.9-12.5,18.2-19.5,16.9c-7-1.3-7.6-12.7-5.9-21.6c1.7-8.9,7.7-9.5,14.7-8.2
					C325.2,122.8,330.5,125.5,328.9,134.4z"/>
				<path class="st3" d="M313.9,136.9c0.3,1.5-2.2,3.2-5.6,3.9c-3.4,0.6-6.3-0.1-6.6-1.5c-0.3-1.5,2.2-3.2,5.6-3.9
					C310.7,134.7,313.6,135.4,313.9,136.9z"/>
				<path class="st4" d="M318.1,121.5c-4.7-0.9-8.9-0.9-11.7,1.8c2.6-1.2,5.9-1,9.5-0.3c7,1.3,12.4,4,10.8,12.9
					c-0.9,4.9-4.6,9.9-8.9,13.2c5.2-3.1,10-9,11.1-14.7C330.5,125.5,325.2,122.8,318.1,121.5z"/>
			</g>
			<path class="st3" d="M305.6,141.5L305.6,141.5c0,0-0.2-22.3,3.2-46.8c2.1-15.3-2.7-39.4-45.9-47.4c-43.2-8-56.7,12.6-59.9,27.7
				c-3.8,18.3-13.9,44.8-13.9,44.8l0,0c-3.7,6.7-6.3,13.1-7.6,18.4c-6.5,27.6,17,56.2,52.7,62.8c35.7,6.7,67.9-11.6,71.8-39.6
				C306.7,156,306.6,149.1,305.6,141.5z"/>
			<g>
				<path class="st5" d="M201.9,169.3c2.1-2.1,4.8-3.6,7.8-4.4c2.9-0.8,6.3-0.8,9.3,0.4c3,1.2,5.4,3.5,7,6.1c1.6,2.6,2.6,5.5,3,8.4
					c-1.5-2.5-3-5-4.9-7c-1.8-2.1-3.9-3.8-6.2-4.7c-2.4-1-5-1.2-7.7-0.9C207.4,167.6,204.6,168.3,201.9,169.3z"/>
			</g>
			<path class="st7" d="M323.8,66.4c5.5,47.1-24,79.8-24,79.8s12.2-48.6-2.9-65.7c0,0-69.8,30.2-107.6-6.6
				c-15.8-15.3-20-54.5-20-54.5s22-7.2,45.5-1.3c0,0-2.7-6.9-0.3-11.2c0,0,47,7.6,57.7,31.6c0,0-0.6-9.5,2.4-13.1
				c0,0,11.6,10.7,14.5,16.2C292.8,49,309.6,64.7,323.8,66.4z"/>
			<path class="st8" d="M232.8,128.7c0,0-12.2,16.1-24.2,10.7c0,0,4.7,19.3,19.1,16.5c0,0-7.9-3.7-9.3-9.8
				C218.5,146.2,228,146.8,232.8,128.7z"/>
			<g>
				<path class="st5" d="M256.7,99.7c2.9-1.2,6-1.5,9.1-1.5c3.1,0,6.2,0.6,9.1,1.5c3,1,5.8,2.5,8.2,4.5c2.4,2,4.4,4.6,5.5,7.5
					c-2.7-1.6-5.1-3-7.6-4.2c-2.5-1.1-5-2.2-7.7-3c-2.6-0.9-5.3-1.6-8.1-2.4C262.5,101.3,259.6,100.6,256.7,99.7z"/>
			</g>
			<g>
				<path class="st5" d="M230.2,97.5c-2.7-0.1-5.3-0.3-7.7-0.5c-2.5-0.2-4.9-0.4-7.3-0.5c-2.4-0.1-4.7-0.1-7.1,0
					c-2.4,0.1-4.8,0.5-7.6,0.8c1.7-2.1,4.1-3.7,6.8-4.6c2.6-0.9,5.4-1.3,8.2-1.1c2.7,0.1,5.4,0.7,7.9,1.7
					C225.8,94.2,228.2,95.6,230.2,97.5z"/>
			</g>
			<g>
				<path class="st9" d="M212.7,122c5.6,1.4,14,5.9,14,5.9c2.5-10.5-2.1-20.6-10.4-22.7c-8.3-2.1-17.1,4.7-19.8,15.1
					C196.5,120.3,207.2,120.6,212.7,122z"/>
				<path class="st5" d="M214.1,122.4c0.6-0.9,1-2,1.4-3.2c0.9-3.8-0.1-7.3-2.3-7.9c-2.2-0.6-4.8,2.1-5.8,5.8
					c-0.3,1.4-0.4,2.7-0.3,3.9c2,0.2,4,0.5,5.6,0.9C213.2,122.1,213.6,122.2,214.1,122.4z"/>
				<polygon class="st9" points="208.8,111.6 211.7,117 208,114.7 				"/>
				<g>
					<path class="st5" d="M226.8,127.9c0.6-4.6,0.2-9.2-1.5-13.3c-1.7-4-5-7.4-9.1-8.4c-4.1-1.1-8.6,0.4-12,3.1
						c-3.5,2.8-6,6.7-7.6,11c0.8-4.5,3-9,6.6-12.2c1.8-1.6,3.9-2.9,6.2-3.6c2.3-0.7,4.9-0.9,7.3-0.3c2.4,0.6,4.6,1.9,6.3,3.7
						c1.7,1.8,3,3.9,3.8,6.1C228.3,118.5,228.2,123.5,226.8,127.9z"/>
				</g>
			</g>
			<g>
				<path class="st9" d="M262.5,135.3c6.1,2.3,15.2,8.4,15.2,8.4c4.1-11.6,0.1-23.7-9.1-27c-9.2-3.4-20,3.3-24.4,14.8
					C244.3,131.4,256.3,133,262.5,135.3z"/>
				<path class="st5" d="M264,135.9c0.8-1,1.4-2.1,1.9-3.5c1.5-4.2,0.8-8.3-1.7-9.2c-2.5-0.9-5.7,1.8-7.2,5.9
					c-0.6,1.5-0.8,3-0.8,4.4c2.3,0.5,4.5,1.1,6.3,1.7C263,135.4,263.5,135.6,264,135.9z"/>
				<polygon class="st9" points="259.3,122.9 261.9,129.4 258,126.4 				"/>
				<g>
					<path class="st5" d="M277.7,143.6c1.3-5.1,1.5-10.4,0-15.3c-1.4-4.8-4.8-9.1-9.4-10.8c-4.6-1.7-10-0.6-14.2,2.2
						c-4.3,2.8-7.6,6.9-9.9,11.7c1.5-5,4.6-9.8,9-13c2.2-1.6,4.7-2.8,7.5-3.3c2.7-0.5,5.6-0.4,8.3,0.6c2.6,1,5,2.7,6.7,4.9
						c1.7,2.2,2.9,4.7,3.5,7.4C280.5,133.2,279.8,138.8,277.7,143.6z"/>
				</g>
			</g>
			<path class="st1" d="M283.3,145.1c0,0,9.5,22.7,2.2,24.2c-7.3,1.5-7.6-6.7-6.2-13.5C280.7,149.1,283.3,145.1,283.3,145.1z"/>
		</g>
		<path class="st10" d="M295.7,214.7H215c-3.8,0-6.7,4-6.4,9l2.1,50.9c12.6,4.1,26.1,6.3,40.1,6.3c18.1,0,35.3-3.7,51-10.4l0.4-46.9
			C302.4,218.8,299.5,214.7,295.7,214.7z"/>
		<path class="st11" d="M290,221.8c-7.9,2.4-7.1,12.8-5.8,23.6c0.9,7.6,4,30.1,4,30.1c4.6-1.4,9.2-3,13.6-4.9l0.4-43.9l-1.4-4.6
			C299.1,216.6,297.8,219.4,290,221.8z"/>
		<path class="st11" d="M245,234.5c-0.5,0-0.9,1.1-0.9,2.5v43.8c0.6,0,1.2,0.1,1.8,0.1V237C245.9,235.6,245.5,234.5,245,234.5z"/>
		<polygon class="st9" points="245,267.5 269.3,214.7 232.2,214.7 		"/>
		<polygon class="st11" points="269.3,214.7 278.6,228.1 265.5,235.8 269.3,251.6 245,276.1 245,267.5 		"/>
		<polygon class="st11" points="232.2,214.7 222.8,228.1 232.2,235.7 228.9,249.4 245,276.1 245,267.5 		"/>
		<polygon class="st12" points="250.3,214.7 255.4,225.4 271,217.1 264.6,208.9 		"/>
		<polygon class="st12" points="241.1,214.7 234.3,223.8 228.9,214.7 236.1,208.9 		"/>
		<path class="st10" d="M309.6,221.2c-1.7-5.5-9.4-8-17.3-5.6c-7.9,2.4-12.9,8.8-11.3,14.2l14.3,43.3c9.4-3.4,18.3-7.9,26.5-13.3
			L309.6,221.2z"/>
	</g>
</g>
<g>
	<g>
		<path class="st0" d="M307.3,281c-7.2,0-10.4-5.1-7.2-11.4l57.7-113.4c3.2-6.3,8.4-6.3,11.6,0l57.7,113.4c3.2,6.3,0,11.4-7.2,11.4
			H307.3z"/>
		<path class="st13" d="M354.6,198l5.9,39.9c0.6,4,5.7,4,6.3,0l5.9-39.9C373.9,182.5,353.5,182.5,354.6,198z"/>
		<ellipse class="st13" cx="363.7" cy="254.2" rx="9.1" ry="9.1"/>
	</g>
</g>
</svg>
